<svg width="1024" height="1024" viewBox="0 0 1024 1024" fill="none" xmlns="http://www.w3.org/2000/svg">
<circle cx="512" cy="512" r="512" fill="#223843"/>
<circle cx="512" cy="512" r="460.8" fill="white"/>
<path d="M83.9982 584V477.091H122.419V584H83.9982ZM103.208 465.955C98.0115 465.955 93.5569 464.238 89.8448 460.804C86.1327 457.37 84.2766 453.241 84.2766 448.415C84.2766 443.589 86.1327 439.459 89.8448 436.026C93.5569 432.592 98.0115 430.875 103.208 430.875C108.452 430.875 112.906 432.592 116.572 436.026C120.284 439.459 122.14 443.589 122.14 448.415C122.14 453.241 120.284 457.37 116.572 460.804C112.906 464.238 108.452 465.955 103.208 465.955ZM180.415 523.864V584H141.994V477.091H178.466V497.415H179.58C181.9 490.64 185.983 485.327 191.83 481.476C197.723 477.625 204.59 475.699 212.432 475.699C219.995 475.699 226.561 477.439 232.129 480.919C237.744 484.353 242.082 489.086 245.145 495.118C248.254 501.15 249.785 508.041 249.739 515.79V584H211.318V523.864C211.365 518.574 210.019 514.421 207.281 511.405C204.59 508.389 200.831 506.881 196.006 506.881C192.85 506.881 190.089 507.577 187.723 508.969C185.403 510.314 183.616 512.263 182.364 514.815C181.111 517.321 180.461 520.337 180.415 523.864ZM332.461 477.091V504.932H262.023V477.091H332.461ZM275.665 451.477H314.086V549.616C314.086 551.101 314.341 552.354 314.852 553.375C315.362 554.349 316.151 555.092 317.218 555.602C318.285 556.066 319.654 556.298 321.325 556.298C322.485 556.298 323.83 556.159 325.362 555.881C326.939 555.602 328.099 555.37 328.842 555.185L334.41 582.19C332.693 582.701 330.234 583.327 327.032 584.07C323.877 584.812 320.118 585.299 315.756 585.531C306.94 585.995 299.539 585.09 293.553 582.817C287.567 580.497 283.067 576.854 280.05 571.889C277.034 566.924 275.573 560.706 275.665 553.236V451.477ZM398.218 585.949C386.803 585.949 376.966 583.768 368.706 579.406C360.493 574.998 354.159 568.687 349.705 560.474C345.297 552.215 343.093 542.331 343.093 530.824C343.093 519.78 345.32 510.129 349.775 501.869C354.229 493.61 360.516 487.183 368.637 482.589C376.757 477.996 386.339 475.699 397.382 475.699C405.456 475.699 412.765 476.952 419.307 479.457C425.85 481.963 431.441 485.606 436.081 490.385C440.721 495.118 444.294 500.872 446.8 507.646C449.306 514.421 450.559 522.054 450.559 530.545V539.455H355.064V518.295H415.201C415.154 515.233 414.365 512.542 412.834 510.222C411.349 507.855 409.331 506.022 406.779 504.723C404.273 503.377 401.419 502.705 398.218 502.705C395.109 502.705 392.255 503.377 389.657 504.723C387.058 506.022 384.97 507.832 383.392 510.152C381.861 512.472 381.049 515.187 380.956 518.295V541.125C380.956 544.559 381.676 547.621 383.114 550.312C384.552 553.004 386.617 555.115 389.309 556.646C392 558.178 395.248 558.943 399.053 558.943C401.698 558.943 404.111 558.572 406.292 557.83C408.519 557.087 410.421 556.02 411.999 554.628C413.577 553.189 414.737 551.473 415.479 549.477H450.559C449.352 556.902 446.498 563.351 441.998 568.827C437.497 574.256 431.534 578.478 424.11 581.494C416.732 584.464 408.101 585.949 398.218 585.949ZM466.237 584V477.091H503.543V497.415H504.657C506.606 489.898 509.692 484.399 513.914 480.919C518.183 477.439 523.171 475.699 528.879 475.699C530.549 475.699 532.196 475.838 533.82 476.116C535.491 476.348 537.092 476.696 538.623 477.161V509.943C536.72 509.294 534.377 508.806 531.593 508.482C528.809 508.157 526.419 507.994 524.424 507.994C520.665 507.994 517.278 508.853 514.262 510.57C511.292 512.24 508.949 514.607 507.232 517.669C505.515 520.685 504.657 524.235 504.657 528.318V584H466.237ZM662.219 477.091L626.304 584H581.759L545.844 477.091H586.213L603.475 547.807H604.588L621.85 477.091H662.219ZM700.257 585.67C693.436 585.67 687.404 584.557 682.16 582.33C676.963 580.056 672.88 576.622 669.91 572.028C666.94 567.435 665.456 561.588 665.456 554.489C665.456 548.642 666.453 543.654 668.449 539.524C670.444 535.348 673.228 531.938 676.801 529.293C680.374 526.648 684.527 524.629 689.26 523.237C694.039 521.845 699.19 520.94 704.711 520.523C710.697 520.059 715.5 519.502 719.119 518.852C722.785 518.156 725.43 517.205 727.054 515.999C728.678 514.746 729.49 513.098 729.49 511.057V510.778C729.49 507.994 728.422 505.86 726.288 504.375C724.154 502.89 721.416 502.148 718.075 502.148C714.409 502.148 711.416 502.96 709.096 504.584C706.823 506.161 705.454 508.598 704.99 511.892H669.632C670.096 505.396 672.161 499.41 675.826 493.935C679.538 488.413 684.944 484.005 692.044 480.71C699.143 477.369 708.006 475.699 718.632 475.699C726.288 475.699 733.155 476.604 739.234 478.413C745.313 480.177 750.486 482.659 754.755 485.861C759.024 489.016 762.272 492.728 764.5 496.997C766.773 501.22 767.91 505.813 767.91 510.778V584H731.995V568.966H731.16C729.026 572.956 726.427 576.181 723.365 578.641C720.349 581.1 716.892 582.886 712.994 584C709.143 585.114 704.897 585.67 700.257 585.67ZM712.785 561.449C715.708 561.449 718.446 560.846 720.998 559.639C723.597 558.433 725.708 556.693 727.332 554.419C728.956 552.145 729.768 549.384 729.768 546.136V537.227C728.747 537.645 727.657 538.039 726.497 538.411C725.383 538.782 724.177 539.13 722.877 539.455C721.625 539.779 720.279 540.081 718.841 540.359C717.449 540.638 715.987 540.893 714.456 541.125C711.486 541.589 709.05 542.355 707.147 543.422C705.291 544.443 703.899 545.719 702.971 547.25C702.09 548.735 701.649 550.405 701.649 552.261C701.649 555.231 702.693 557.505 704.781 559.082C706.869 560.66 709.537 561.449 712.785 561.449ZM824.688 441.455V584H786.268V441.455H824.688ZM941.985 511.892H906.627C906.442 509.711 905.676 507.832 904.331 506.254C902.985 504.677 901.245 503.47 899.11 502.635C897.022 501.753 894.702 501.312 892.15 501.312C888.856 501.312 886.025 501.916 883.659 503.122C881.292 504.329 880.132 506.045 880.179 508.273C880.132 509.85 880.805 511.312 882.197 512.658C883.636 514.003 886.396 515.047 890.48 515.79L912.196 519.688C923.146 521.683 931.29 525.047 936.626 529.78C942.009 534.466 944.723 540.754 944.77 548.642C944.723 556.252 942.449 562.864 937.949 568.479C933.494 574.047 927.392 578.362 919.643 581.425C911.94 584.441 903.147 585.949 893.264 585.949C876.931 585.949 864.147 582.608 854.913 575.926C845.725 569.244 840.598 560.428 839.531 549.477H877.673C878.183 552.865 879.854 555.486 882.684 557.342C885.561 559.152 889.181 560.057 893.542 560.057C897.069 560.057 899.969 559.454 902.243 558.247C904.563 557.041 905.746 555.324 905.792 553.097C905.746 551.055 904.725 549.431 902.73 548.224C900.781 547.018 897.718 546.044 893.542 545.301L874.61 541.96C863.706 540.058 855.539 536.438 850.11 531.102C844.681 525.766 841.99 518.899 842.037 510.5C841.99 503.076 843.939 496.788 847.883 491.638C851.874 486.441 857.558 482.497 864.936 479.805C872.36 477.068 881.153 475.699 891.315 475.699C906.767 475.699 918.947 478.901 927.856 485.304C936.812 491.707 941.521 500.57 941.985 511.892Z" fill="black"/>
</svg>
