<svg width="1024" height="1024" viewBox="0 0 1024 1024" fill="none" xmlns="http://www.w3.org/2000/svg">
<circle cx="512" cy="512" r="512" fill="#223843"/>
<circle cx="512" cy="512" r="460.8" fill="white"/>
<path d="M280.016 465V322.455H341.544C352.124 322.455 361.381 324.543 369.315 328.719C377.25 332.895 383.421 338.765 387.83 346.328C392.238 353.892 394.442 362.731 394.442 372.847C394.442 383.055 392.168 391.894 387.621 399.365C383.12 406.836 376.786 412.589 368.619 416.626C360.499 420.663 351.01 422.682 340.152 422.682H303.402V392.614H332.357C336.904 392.614 340.778 391.825 343.98 390.247C347.228 388.623 349.711 386.326 351.428 383.357C353.191 380.387 354.072 376.884 354.072 372.847C354.072 368.763 353.191 365.283 351.428 362.406C349.711 359.483 347.228 357.256 343.98 355.724C340.778 354.147 336.904 353.358 332.357 353.358H318.714V465H280.016ZM444.834 465L402.794 322.455H445.947L465.436 410.153H466.55L489.658 322.455H523.624L546.732 410.432H547.845L567.334 322.455H610.487L568.447 465H531.419L507.197 385.375H506.084L481.862 465H444.834ZM643.392 465H601.63L648.681 322.455H701.579L748.63 465H706.869L675.687 361.71H674.574L643.392 465ZM635.596 408.761H714.108V437.716H635.596V408.761ZM249.191 604C248.819 599.36 247.079 595.741 243.97 593.142C240.908 590.544 236.244 589.244 229.98 589.244C225.99 589.244 222.718 589.732 220.166 590.706C217.661 591.634 215.805 592.91 214.598 594.534C213.392 596.158 212.765 598.014 212.719 600.102C212.626 601.819 212.928 603.374 213.624 604.766C214.366 606.111 215.526 607.341 217.104 608.455C218.682 609.522 220.7 610.496 223.159 611.378C225.619 612.259 228.542 613.048 231.929 613.744L243.622 616.25C251.511 617.92 258.262 620.125 263.877 622.862C269.491 625.6 274.085 628.825 277.658 632.537C281.231 636.203 283.852 640.332 285.523 644.926C287.24 649.52 288.121 654.531 288.168 659.96C288.121 669.333 285.778 677.268 281.138 683.764C276.498 690.26 269.862 695.202 261.232 698.589C252.647 701.977 242.323 703.67 230.259 703.67C217.869 703.67 207.058 701.838 197.824 698.172C188.637 694.506 181.491 688.868 176.387 681.259C171.329 673.602 168.777 663.812 168.73 651.886H205.48C205.712 656.248 206.803 659.914 208.752 662.884C210.7 665.853 213.438 668.104 216.965 669.635C220.538 671.166 224.783 671.932 229.702 671.932C233.832 671.932 237.289 671.421 240.073 670.401C242.857 669.38 244.968 667.964 246.406 666.155C247.845 664.345 248.587 662.28 248.634 659.96C248.587 657.779 247.868 655.877 246.476 654.253C245.13 652.582 242.903 651.098 239.794 649.798C236.685 648.453 232.486 647.2 227.196 646.04L212.997 642.977C200.376 640.24 190.423 635.669 183.138 629.266C175.899 622.816 172.303 614.023 172.35 602.886C172.303 593.838 174.716 585.927 179.588 579.152C184.507 572.331 191.305 567.018 199.982 563.213C208.705 559.408 218.705 557.506 229.98 557.506C241.488 557.506 251.441 559.431 259.84 563.283C268.238 567.134 274.711 572.563 279.259 579.57C283.852 586.53 286.173 594.673 286.219 604H249.191ZM367.201 595.091V622.932H296.764V595.091H367.201ZM310.406 569.477H348.826V667.616C348.826 669.101 349.081 670.354 349.592 671.375C350.102 672.349 350.891 673.092 351.958 673.602C353.026 674.066 354.394 674.298 356.065 674.298C357.225 674.298 358.57 674.159 360.102 673.881C361.679 673.602 362.839 673.37 363.582 673.185L369.15 700.19C367.433 700.701 364.974 701.327 361.772 702.07C358.617 702.812 354.858 703.299 350.497 703.531C341.68 703.995 334.279 703.09 328.294 700.817C322.308 698.497 317.807 694.854 314.791 689.889C311.775 684.924 310.313 678.706 310.406 671.236V569.477ZM412.669 703.67C405.848 703.67 399.816 702.557 394.572 700.33C389.375 698.056 385.292 694.622 382.322 690.028C379.353 685.435 377.868 679.588 377.868 672.489C377.868 666.642 378.865 661.654 380.861 657.524C382.856 653.348 385.64 649.938 389.213 647.293C392.786 644.648 396.939 642.629 401.672 641.237C406.451 639.845 411.602 638.94 417.123 638.523C423.109 638.059 427.912 637.502 431.531 636.852C435.197 636.156 437.842 635.205 439.466 633.999C441.09 632.746 441.902 631.098 441.902 629.057V628.778C441.902 625.994 440.835 623.86 438.7 622.375C436.566 620.89 433.828 620.148 430.487 620.148C426.821 620.148 423.828 620.96 421.508 622.584C419.235 624.161 417.866 626.598 417.402 629.892H382.044C382.508 623.396 384.573 617.41 388.238 611.935C391.951 606.413 397.356 602.005 404.456 598.71C411.555 595.369 420.418 593.699 431.044 593.699C438.7 593.699 445.568 594.604 451.646 596.413C457.725 598.177 462.899 600.659 467.167 603.861C471.436 607.016 474.684 610.728 476.912 614.997C479.185 619.22 480.322 623.813 480.322 628.778V702H444.407V686.966H443.572C441.438 690.956 438.839 694.181 435.777 696.641C432.761 699.1 429.304 700.886 425.406 702C421.555 703.114 417.309 703.67 412.669 703.67ZM425.197 679.449C428.121 679.449 430.858 678.846 433.41 677.639C436.009 676.433 438.12 674.693 439.744 672.419C441.368 670.145 442.18 667.384 442.18 664.136V655.227C441.159 655.645 440.069 656.039 438.909 656.411C437.795 656.782 436.589 657.13 435.29 657.455C434.037 657.779 432.691 658.081 431.253 658.359C429.861 658.638 428.399 658.893 426.868 659.125C423.898 659.589 421.462 660.355 419.559 661.422C417.703 662.443 416.311 663.719 415.383 665.25C414.502 666.735 414.061 668.405 414.061 670.261C414.061 673.231 415.105 675.505 417.193 677.082C419.281 678.66 421.949 679.449 425.197 679.449ZM498.68 702V595.091H535.987V615.415H537.1C539.049 607.898 542.135 602.399 546.357 598.919C550.626 595.439 555.615 593.699 561.322 593.699C562.992 593.699 564.64 593.838 566.264 594.116C567.934 594.348 569.535 594.696 571.066 595.161V627.943C569.164 627.294 566.82 626.806 564.036 626.482C561.252 626.157 558.863 625.994 556.867 625.994C553.109 625.994 549.722 626.853 546.705 628.57C543.736 630.24 541.392 632.607 539.676 635.669C537.959 638.685 537.1 642.235 537.1 646.318V702H498.68ZM651.822 595.091V622.932H581.385V595.091H651.822ZM595.027 569.477H633.447V667.616C633.447 669.101 633.702 670.354 634.213 671.375C634.723 672.349 635.512 673.092 636.579 673.602C637.647 674.066 639.015 674.298 640.686 674.298C641.846 674.298 643.192 674.159 644.723 673.881C646.3 673.602 647.461 673.37 648.203 673.185L653.771 700.19C652.054 700.701 649.595 701.327 646.393 702.07C643.238 702.812 639.479 703.299 635.118 703.531C626.301 703.995 618.9 703.09 612.915 700.817C606.929 698.497 602.428 694.854 599.412 689.889C596.396 684.924 594.934 678.706 595.027 671.236V569.477ZM717.579 703.949C706.164 703.949 696.327 701.768 688.068 697.406C679.855 692.998 673.521 686.687 669.066 678.474C664.658 670.215 662.454 660.331 662.454 648.824C662.454 637.78 664.681 628.129 669.136 619.869C673.59 611.61 679.878 605.183 687.998 600.589C696.118 595.996 705.7 593.699 716.744 593.699C724.818 593.699 732.126 594.952 738.669 597.457C745.211 599.963 750.802 603.606 755.443 608.385C760.083 613.118 763.656 618.872 766.161 625.646C768.667 632.421 769.92 640.054 769.92 648.545V657.455H674.426V636.295H734.562C734.516 633.233 733.727 630.542 732.195 628.222C730.711 625.855 728.692 624.022 726.14 622.723C723.634 621.377 720.781 620.705 717.579 620.705C714.47 620.705 711.616 621.377 709.018 622.723C706.419 624.022 704.331 625.832 702.754 628.152C701.222 630.472 700.41 633.187 700.318 636.295V659.125C700.318 662.559 701.037 665.621 702.475 668.312C703.914 671.004 705.979 673.115 708.67 674.646C711.361 676.178 714.609 676.943 718.414 676.943C721.059 676.943 723.472 676.572 725.653 675.83C727.88 675.087 729.783 674.02 731.36 672.628C732.938 671.189 734.098 669.473 734.84 667.477H769.92C768.713 674.902 765.86 681.351 761.359 686.827C756.858 692.256 750.895 696.478 743.471 699.494C736.093 702.464 727.463 703.949 717.579 703.949ZM785.598 702V595.091H822.905V615.415H824.018C825.967 607.898 829.053 602.399 833.275 598.919C837.544 595.439 842.532 593.699 848.24 593.699C849.91 593.699 851.558 593.838 853.182 594.116C854.852 594.348 856.453 594.696 857.984 595.161V627.943C856.082 627.294 853.738 626.806 850.954 626.482C848.17 626.157 845.781 625.994 843.785 625.994C840.027 625.994 836.64 626.853 833.623 628.57C830.654 630.24 828.31 632.607 826.594 635.669C824.877 638.685 824.018 642.235 824.018 646.318V702H785.598Z" fill="black"/>
</svg>
